<?xml version="1.0" encoding="UTF-8" standalone="no"?>
<!DOCTYPE svg PUBLIC "-//W3C//DTD SVG 1.1//EN" "http://www.w3.org/Graphics/SVG/1.1/DTD/svg11.dtd">
<svg width="100%" height="100%" viewBox="0 0 1966 300" version="1.1" xmlns="http://www.w3.org/2000/svg" xmlns:xlink="http://www.w3.org/1999/xlink" xml:space="preserve" xmlns:serif="http://www.serif.com/" style="fill-rule:evenodd;clip-rule:evenodd;stroke-linejoin:round;stroke-miterlimit:2;">
    <g transform="matrix(1,0,0,1,-717.116,-1482.8)">
        <g id="Icon" transform="matrix(0.75711,0,0,0.75711,-349.86,1027.66)">
            <g transform="matrix(1.14966,0,0,1.21432,-210.908,-184.992)">
                <path d="M1753.94,647.402L1409.28,647.402L1409.28,647.402C1409.28,827.618 1563.59,973.712 1753.94,973.712L1753.94,973.712L1753.94,647.402Z" style="fill:rgb(255,227,74);"/>
                <path d="M1753.94,647.402L1409.28,647.402L1409.28,647.402C1409.28,827.618 1563.59,973.712 1753.94,973.712L1753.94,973.712L1753.94,647.402ZM1707.25,926.055L1707.25,691.603L1459.61,691.603C1479.61,812.01 1580.08,907.126 1707.25,926.055Z" style="fill:rgb(47,47,47);"/>
            </g>
            <g transform="matrix(0.708309,0,0,0.790217,626.741,21.7898)">
                <path d="M1104.79,1026.82L1104.79,1233.91L1336.62,1234.61C1229.9,1183.23 1153.8,1111.16 1104.79,1026.82Z" style="fill:rgb(47,47,47);"/>
            </g>
        </g>
        <g transform="matrix(1,0,0,1,-324.812,-167.348)">
            <g transform="matrix(312.5,0,0,312.5,1471.74,1916.81)">
                <path d="M0.751,-0.347C0.751,-0.314 0.747,-0.282 0.738,-0.251C0.729,-0.22 0.717,-0.192 0.702,-0.165C0.686,-0.138 0.667,-0.113 0.645,-0.091C0.623,-0.069 0.598,-0.05 0.572,-0.034C0.545,-0.019 0.516,-0.006 0.485,0.002C0.454,0.011 0.422,0.015 0.389,0.015C0.356,0.015 0.324,0.011 0.293,0.002C0.262,-0.006 0.234,-0.019 0.207,-0.034C0.18,-0.05 0.155,-0.069 0.133,-0.091C0.111,-0.113 0.092,-0.138 0.076,-0.165C0.061,-0.192 0.048,-0.22 0.04,-0.251C0.031,-0.282 0.027,-0.314 0.027,-0.347C0.027,-0.38 0.031,-0.412 0.04,-0.443C0.048,-0.474 0.061,-0.503 0.076,-0.53C0.092,-0.556 0.111,-0.581 0.133,-0.603C0.155,-0.625 0.18,-0.644 0.207,-0.66C0.234,-0.675 0.262,-0.687 0.293,-0.696C0.324,-0.705 0.356,-0.709 0.389,-0.709C0.422,-0.709 0.454,-0.705 0.485,-0.696C0.516,-0.687 0.545,-0.675 0.572,-0.66C0.598,-0.644 0.623,-0.625 0.645,-0.603C0.667,-0.581 0.686,-0.556 0.702,-0.53C0.717,-0.503 0.729,-0.474 0.738,-0.443C0.747,-0.412 0.751,-0.38 0.751,-0.347ZM0.612,-0.347C0.612,-0.378 0.606,-0.407 0.594,-0.434C0.583,-0.461 0.567,-0.485 0.547,-0.505C0.527,-0.525 0.503,-0.541 0.476,-0.552C0.449,-0.564 0.42,-0.57 0.389,-0.57C0.358,-0.57 0.329,-0.564 0.302,-0.552C0.275,-0.541 0.252,-0.525 0.231,-0.505C0.211,-0.485 0.195,-0.461 0.184,-0.434C0.172,-0.407 0.166,-0.378 0.166,-0.347C0.166,-0.317 0.172,-0.288 0.184,-0.261C0.195,-0.234 0.211,-0.211 0.231,-0.19C0.252,-0.17 0.275,-0.154 0.302,-0.143C0.329,-0.131 0.358,-0.125 0.389,-0.125C0.42,-0.125 0.449,-0.131 0.476,-0.143C0.503,-0.154 0.527,-0.17 0.547,-0.19C0.567,-0.211 0.583,-0.234 0.594,-0.261C0.606,-0.288 0.612,-0.317 0.612,-0.347Z" style="fill:rgb(47,47,47);fill-rule:nonzero;"/>
            </g>
            <g transform="matrix(312.5,0,0,312.5,1714.81,1916.81)">
                <path d="M0.625,-0L0.475,-0L0.205,-0.461L0.205,-0L0.065,-0L0.065,-0.7L0.215,-0.7L0.485,-0.239L0.485,-0.7L0.625,-0.7L0.625,-0Z" style="fill:rgb(47,47,47);fill-rule:nonzero;"/>
            </g>
            <path d="M1997.1,1916.81L1955.44,1916.81L1955.44,1794.89L1935.15,1794.89L1935.15,1753.38L1955.44,1753.38L1955.44,1745.6C1955.44,1735.53 1957.35,1726.07 1961.17,1717.22C1964.98,1708.37 1970.22,1700.67 1976.88,1694.1C1983.55,1687.54 1991.3,1682.36 2000.15,1678.54C2009,1674.73 2018.46,1672.82 2028.53,1672.82L2059.82,1672.82L2059.82,1714.32L2028.53,1714.32C2024.06,1714.32 2019.91,1715.11 2016.1,1716.69C2012.28,1718.26 2008.98,1720.45 2006.18,1723.25C2003.38,1726.05 2001.17,1729.35 1999.54,1733.17C1997.91,1736.98 1997.1,1741.13 1997.1,1745.6L1997.1,1753.38L2115.82,1753.38L2115.82,1916.81L2073.85,1916.81L2073.85,1794.89L1997.1,1794.89L1997.1,1916.81Z" style="fill:white;fill-rule:nonzero;stroke:rgb(47,47,47);stroke-width:10.14px;"/>
            <path d="M2229.49,1916.81C2219.42,1916.81 2209.96,1914.9 2201.11,1911.08C2192.26,1907.27 2184.51,1902.03 2177.84,1895.37C2171.18,1888.7 2165.94,1880.95 2162.12,1872.1C2158.31,1863.25 2156.4,1853.79 2156.4,1843.72L2156.4,1795.19L2136.11,1795.19L2136.11,1753.69L2156.4,1753.69L2156.4,1688.38L2197.91,1688.38L2197.91,1753.69L2261.08,1753.69L2261.08,1795.19L2197.91,1795.19L2197.91,1843.72C2197.91,1848.09 2198.72,1852.18 2200.35,1856C2201.98,1859.82 2204.21,1863.15 2207.06,1866C2209.91,1868.84 2213.27,1871.11 2217.13,1872.79C2221,1874.46 2225.12,1875.3 2229.49,1875.3L2261.08,1875.3L2261.08,1916.81L2229.49,1916.81Z" style="fill:white;fill-rule:nonzero;stroke:rgb(47,47,47);stroke-width:10.14px;"/>
            <path d="M2326.08,1916.81L2284.42,1916.81L2284.42,1753.38L2294.49,1753.38L2308.23,1769.25C2314.94,1763.15 2322.55,1758.45 2331.04,1755.14C2339.53,1751.83 2348.41,1750.18 2357.67,1750.18C2367.64,1750.18 2377.05,1752.09 2385.89,1755.9C2394.74,1759.72 2402.48,1764.96 2409.09,1771.62C2415.7,1778.28 2420.91,1786.06 2424.73,1794.97C2428.54,1803.87 2430.45,1813.35 2430.45,1823.42L2430.45,1916.81L2388.79,1916.81L2388.79,1823.42C2388.79,1819.15 2387.98,1815.11 2386.35,1811.29C2384.72,1807.48 2382.49,1804.15 2379.64,1801.3C2376.79,1798.45 2373.49,1796.21 2369.72,1794.58C2365.96,1792.96 2361.94,1792.14 2357.67,1792.14C2353.29,1792.14 2349.17,1792.96 2345.31,1794.58C2341.44,1796.21 2338.08,1798.45 2335.24,1801.3C2332.39,1804.15 2330.15,1807.48 2328.52,1811.29C2326.89,1815.11 2326.08,1819.15 2326.08,1823.42L2326.08,1916.81Z" style="fill:white;fill-rule:nonzero;stroke:rgb(47,47,47);stroke-width:10.14px;"/>
            <path d="M2525.05,1876.83C2526.68,1877.34 2528.31,1877.67 2529.94,1877.82C2531.57,1877.97 2533.19,1878.05 2534.82,1878.05C2538.89,1878.05 2542.81,1877.49 2546.57,1876.37C2550.33,1875.25 2553.87,1873.65 2557.18,1871.56C2560.48,1869.48 2563.43,1866.94 2566.03,1863.93C2568.62,1860.93 2570.73,1857.6 2572.36,1853.94L2602.88,1884.61C2599.01,1890.1 2594.56,1895.04 2589.52,1899.41C2584.49,1903.79 2579.05,1907.5 2573.2,1910.55C2567.35,1913.6 2561.19,1915.92 2554.73,1917.49C2548.27,1919.07 2541.64,1919.86 2534.82,1919.86C2523.33,1919.86 2512.52,1917.72 2502.4,1913.45C2492.27,1909.18 2483.42,1903.23 2475.85,1895.6C2468.27,1887.97 2462.29,1878.89 2457.92,1868.36C2453.54,1857.83 2451.36,1846.26 2451.36,1833.65C2451.36,1820.73 2453.54,1808.93 2457.92,1798.25C2462.29,1787.56 2468.27,1778.46 2475.85,1770.93C2483.42,1763.4 2492.27,1757.56 2502.4,1753.38C2512.52,1749.21 2523.33,1747.13 2534.82,1747.13C2541.64,1747.13 2548.3,1747.94 2554.81,1749.57C2561.32,1751.2 2567.5,1753.54 2573.35,1756.59C2579.2,1759.64 2584.67,1763.38 2589.75,1767.8C2594.84,1772.23 2599.32,1777.19 2603.18,1782.68L2525.05,1876.83ZM2546.42,1790.92C2544.49,1790.21 2542.58,1789.75 2540.7,1789.55C2538.81,1789.35 2536.86,1789.24 2534.82,1789.24C2529.12,1789.24 2523.76,1790.29 2518.72,1792.37C2513.69,1794.46 2509.31,1797.43 2505.6,1801.3C2501.89,1805.16 2498.96,1809.82 2496.83,1815.26C2494.69,1820.7 2493.62,1826.83 2493.62,1833.65C2493.62,1835.17 2493.7,1836.9 2493.85,1838.83C2494,1840.77 2494.26,1842.73 2494.61,1844.71C2494.97,1846.69 2495.4,1848.6 2495.91,1850.43C2496.42,1852.26 2497.08,1853.89 2497.89,1855.31L2546.42,1790.92Z" style="fill:white;fill-rule:nonzero;stroke:rgb(47,47,47);stroke-width:10.14px;"/>
            <path d="M2713.81,1916.81L2618.59,1916.81L2618.59,1875.3L2713.81,1875.3C2716.66,1875.3 2719.1,1874.29 2721.13,1872.25C2723.16,1870.22 2724.18,1867.78 2724.18,1864.93C2724.18,1861.98 2723.16,1860.04 2721.13,1859.13C2719.1,1858.21 2716.66,1857.76 2713.81,1857.76L2670.47,1857.76C2663.25,1857.76 2656.48,1856.38 2650.18,1853.63C2643.87,1850.89 2638.38,1847.15 2633.7,1842.42C2629.02,1837.69 2625.33,1832.17 2622.64,1825.86C2619.94,1819.56 2618.59,1812.79 2618.59,1805.57C2618.59,1798.35 2619.94,1791.58 2622.64,1785.28C2625.33,1778.97 2629.02,1773.48 2633.7,1768.8C2638.38,1764.12 2643.87,1760.43 2650.18,1757.73C2656.48,1755.04 2663.25,1753.69 2670.47,1753.69L2754.85,1753.69L2754.85,1795.19L2670.47,1795.19C2667.62,1795.19 2665.18,1796.21 2663.15,1798.25C2661.11,1800.28 2660.1,1802.72 2660.1,1805.57C2660.1,1808.52 2661.11,1811.04 2663.15,1813.12C2665.18,1815.21 2667.62,1816.25 2670.47,1816.25L2713.81,1816.25C2720.93,1816.25 2727.64,1817.45 2733.95,1819.84C2740.26,1822.23 2745.75,1825.56 2750.43,1829.83C2755.11,1834.1 2758.82,1839.24 2761.57,1845.24C2764.31,1851.24 2765.69,1857.81 2765.69,1864.93C2765.69,1872.15 2764.31,1878.89 2761.57,1885.14C2758.82,1891.4 2755.11,1896.89 2750.43,1901.62C2745.75,1906.35 2740.26,1910.07 2733.95,1912.76C2727.64,1915.46 2720.93,1916.81 2713.81,1916.81Z" style="fill:white;fill-rule:nonzero;stroke:rgb(47,47,47);stroke-width:10.14px;"/>
            <path d="M2877.53,1916.81L2782.32,1916.81L2782.32,1875.3L2877.53,1875.3C2880.38,1875.3 2882.82,1874.29 2884.86,1872.25C2886.89,1870.22 2887.91,1867.78 2887.91,1864.93C2887.91,1861.98 2886.89,1860.04 2884.86,1859.13C2882.82,1858.21 2880.38,1857.76 2877.53,1857.76L2834.2,1857.76C2826.98,1857.76 2820.21,1856.38 2813.9,1853.63C2807.6,1850.89 2802.1,1847.15 2797.43,1842.42C2792.74,1837.69 2789.06,1832.17 2786.36,1825.86C2783.67,1819.56 2782.32,1812.79 2782.32,1805.57C2782.32,1798.35 2783.67,1791.58 2786.36,1785.28C2789.06,1778.97 2792.74,1773.48 2797.43,1768.8C2802.1,1764.12 2807.6,1760.43 2813.9,1757.73C2820.21,1755.04 2826.98,1753.69 2834.2,1753.69L2918.58,1753.69L2918.58,1795.19L2834.2,1795.19C2831.35,1795.19 2828.91,1796.21 2826.87,1798.25C2824.84,1800.28 2823.82,1802.72 2823.82,1805.57C2823.82,1808.52 2824.84,1811.04 2826.87,1813.12C2828.91,1815.21 2831.35,1816.25 2834.2,1816.25L2877.53,1816.25C2884.65,1816.25 2891.37,1817.45 2897.68,1819.84C2903.98,1822.23 2909.47,1825.56 2914.16,1829.83C2918.83,1834.1 2922.55,1839.24 2925.29,1845.24C2928.04,1851.24 2929.41,1857.81 2929.41,1864.93C2929.41,1872.15 2928.04,1878.89 2925.29,1885.14C2922.55,1891.4 2918.83,1896.89 2914.16,1901.62C2909.47,1906.35 2903.98,1910.07 2897.68,1912.76C2891.37,1915.46 2884.65,1916.81 2877.53,1916.81Z" style="fill:white;fill-rule:nonzero;stroke:rgb(47,47,47);stroke-width:10.14px;"/>
            <path d="M3002.81,1901.24C3002.81,1904.9 3002.15,1908.34 3000.82,1911.54C2999.5,1914.75 2997.67,1917.52 2995.33,1919.86C2992.99,1922.2 2990.24,1924.05 2987.09,1925.43C2983.94,1926.8 2980.53,1927.49 2976.87,1927.49C2973.31,1927.49 2969.93,1926.8 2966.72,1925.43C2963.52,1924.05 2960.72,1922.2 2958.33,1919.86C2955.94,1917.52 2954.06,1914.75 2952.68,1911.54C2951.31,1908.34 2950.62,1904.9 2950.62,1901.24C2950.62,1897.68 2951.31,1894.33 2952.68,1891.17C2954.06,1888.02 2955.94,1885.27 2958.33,1882.93C2960.72,1880.59 2963.52,1878.74 2966.72,1877.36C2969.93,1875.99 2973.31,1875.3 2976.87,1875.3C2980.53,1875.3 2983.94,1875.99 2987.09,1877.36C2990.24,1878.74 2992.99,1880.59 2995.33,1882.93C2997.67,1885.27 2999.5,1888.02 3000.82,1891.17C3002.15,1894.33 3002.81,1897.68 3002.81,1901.24Z" style="fill:white;fill-rule:nonzero;stroke:rgb(47,47,47);stroke-width:10.14px;"/>
        </g>
    </g>
</svg>
